<svg class="header-logo__svg" width="158" height="25" viewBox="0 0 126 20" xmlns="http://www.w3.org/2000/svg">
                        <g fill="none" fill-rule="evenodd">
                            <path d="M5.708 11.203l10.226-9.075c-.812-.634-1.723-1.147-2.71-1.51L5.71 7.288v3.915zM2.77 9.896L0 12.356c.252 1.018.662 1.976 1.203 2.846l1.567-1.39V9.895z" fill="#32324B"></path>
                            <path d="M11.178 2.435V.103C10.708.036 10.23 0 9.742 0 9.232 0 8.73.038 8.24.112v4.93l2.938-2.607zm0 13.713v-9.8L8.24 8.96v10.867c.49.073.99.112 1.502.112.598 0 1.182-.06 1.752-.16l7.868-6.99c.267-.9.413-1.85.413-2.83 0-.47-.034-.92-.096-1.37l-8.51 7.54z" fill="#00D2FF"></path>
                            <path d="M11.178 13.27l7.883-6.995c-.37-.934-.88-1.8-1.51-2.57l-6.37 5.652v3.914zM8.24 11.964L5.71 14.21V.84c-1.1.48-2.09 1.15-2.94 1.964v14.33c.662.637 1.41 1.184 2.23 1.62l3.24-2.874v-3.916z" fill="#FF4B19"></path>
                            <path fill="#32324B" d="M34.266 12.002l1.875-6.988h2.52l-2.78 9.72h-2.97L31.25 8.19l-1.66 6.544h-2.965l-2.785-9.72h2.518l1.874 6.988 1.857-6.988h2.32m13.12 3.69c-.09-1.35-.97-1.845-1.97-1.845-1.15 0-2.02.69-2.15 1.84h4.1zm2.41 2.837c-.29 1.94-1.79 3.32-4.36 3.32-2.73 0-4.75-1.63-4.75-4.93 0-3.32 2.09-5.04 4.75-5.04 2.94 0 4.5 2.15 4.5 5.02v.52h-6.75c0 1.08.44 2.45 2.21 2.45.98 0 1.75-.47 1.94-1.38l2.44.06zm7.35-1.27l-.95.14c-.52.09-1.15.18-1.52.25-.41.07-.77.16-1.04.38-.25.2-.38.46-.38.8 0 .29.1 1.17 1.44 1.17.78 0 1.48-.28 1.85-.65.48-.48.57-1.08.57-1.56v-.51zm0-1.82V8.1c0-.763-.32-1.26-1.77-1.26-1.81 0-1.86.994-1.86 1.33h-2.32c0-1.436.6-3.28 4.25-3.28 3.48 0 4.1 1.72 4.1 3.12v5.358c0 .39.02.71.05.958l.07.408h-2.46v-.976c-.7.692-1.66 1.1-3.04 1.1-1.93 0-3.39-1.117-3.39-3.05 0-2.236 2.12-2.715 2.98-2.856l3.37-.515zm9.33 6.3h-3.26l-3.22-9.72h2.64l2.25 7.43 2.26-7.43h2.57m6.78 3.69c-.09-1.35-.97-1.84-1.97-1.84-1.14 0-2.02.69-2.14 1.85h4.1zm2.41 2.84c-.29 1.94-1.79 3.32-4.36 3.32-2.73 0-4.75-1.63-4.75-4.93 0-3.32 2.09-5.04 4.75-5.04 2.94 0 4.5 2.15 4.5 5.02v.52h-6.75c0 1.08.44 2.45 2.21 2.45.98 0 1.75-.47 1.94-1.38l2.443.06zm3.6 3.2l-2.84-9.47h1.53l2.23 8.02 2.23-8.02h1.66l2.25 8.04 2.234-8.04h1.5l-2.875 9.47H86.8L84.626 6.9l-2.17 7.84m13.93-1.1c1.64 0 2.855-.99 2.855-3.634 0-2.623-1.21-3.634-2.85-3.634-1.66 0-2.873.994-2.873 3.637s1.214 3.63 2.874 3.63m0 1.22c-2.59 0-4.38-1.63-4.38-4.86 0-3.2 1.788-4.86 4.377-4.86 2.57 0 4.357 1.63 4.357 4.86 0 3.24-1.785 4.86-4.356 4.86m10.34-8.11c-1.715 0-2.91.58-2.91 2.82v5.16h-1.465V5.27h1.447V6.9c.625-1.206 1.89-1.63 2.89-1.63h.68v1.49h-.64zm10.3-1.49l-3.46 3.51 3.64 5.96h-1.73l-2.94-4.93-2.27 2.37v2.553h-1.46V1.603h1.463v8.71l4.95-5.053m8.62 2.59c-.09-1.15-1.02-1.49-2.2-1.49-1.02 0-2.29.32-2.29 1.44 0 2.41 6.25.19 6.25 4.06 0 1.29-.75 2.99-4.086 2.99-2.555 0-3.77-1.293-3.82-3.013h1.604c.02 1.046.69 1.79 2.39 1.79 1.94 0 2.422-.83 2.422-1.684 0-1.79-3.3-1.03-5.1-2.04-.66-.37-1.126-.95-1.126-2.02 0-1.56 1.482-2.75 3.77-2.75 2.84 0 3.674 1.65 3.73 2.72h-1.556z"></path>
                        </g>
                    </svg>