<?xml version="1.0" standalone="no"?>
<!DOCTYPE svg PUBLIC "-//W3C//DTD SVG 1.1//EN" "http://www.w3.org/Graphics/SVG/1.1/DTD/svg11.dtd">
<svg xmlns="http://www.w3.org/2000/svg">
<defs >
<font id="Oxygen" horiz-adv-x="919" ><font-face
    font-family="Oxygen"
    units-per-em="2048"
    panose-1="2 0 5 3 0 0 0 0 0 0"
    ascent="2103"
    descent="-483"
    alphabetic="0" />
<glyph unicode=" " horiz-adv-x="511" />
<glyph unicode="!" horiz-adv-x="586" d="M160 67T160 120T195 212T293 252Q356 252 391 213T426 120T391 27T293 -12Q231 -12 196 27ZM391 1496V1354L335 435H256L194 1354V1496H391Z" />
<glyph unicode="&quot;" horiz-adv-x="710" d="M446 1016L425 1510H576L547 1016H446ZM160 1016L139 1510H290L261 1016H160Z" />
<glyph unicode="#" horiz-adv-x="1134" d="M1032 1055L1018 931H871L804 536H951L941 410H786L700 -23H549L633 410H398L318 -23H189L262 410H91L101 536H284L345 930H168L177 1055H370L453 1462H606L527 1055H761L832 1462H960L894 1055H1032ZM737 931H502L422
536H658L737 931Z" />
<glyph unicode="$" horiz-adv-x="1241" d="M580 1693H675V1525Q930 1517 1089 1418L1039 1277Q978 1311 879 1338T675 1371V863L779 838Q959 795 1052 701T1145 432Q1145 217 1020 103T675 -22V-195H580V-22Q420 -17 295 18T94 100L146 244Q348 145 580 132V712L433
749Q96 834 96 1109Q96 1306 224 1408T580 1523V1693ZM580 886V1370Q276 1352 276 1121Q276 1036 331 985T498 906L580 886ZM675 688V131Q966 146 966 426Q966 522 915 581T727 675L675 688Z" />
<glyph unicode="%" horiz-adv-x="1877" d="M1431 754Q1600 754 1692 648T1784 369Q1784 201 1691 93T1431 -15Q1263 -15 1171 92T1079 369T1172 646T1431 754ZM1538 640T1431 640T1265 561T1205 369Q1205 254 1264 176T1431 98T1597 177T1657 369Q1657 484 1598
562ZM401 -4L1196 1462H1358L536 -4H401ZM420 1489Q565 1489 652 1381T740 1104Q740 940 652 834T420 728Q275 728 189 833T103 1104Q103 1271 189 1380T420 1489ZM420 1378Q330 1378 280 1298T230 1104Q230 989 279 917T420 844T561 918T611 1104Q611 1219 560
1298T420 1378Z" />
<glyph unicode="&amp;" horiz-adv-x="1477" d="M441 839Q348 940 308 1008T268 1165Q268 1314 373 1401T657 1489Q762 1489 848 1457T990 1353T1046 1182Q1046 1118 1021 1062T947 959T841 876T707 804L1108 375Q1188 459 1250 599L1371 507Q1309 371 1212 257L1393
41Q1319 13 1236 -11L1100 143Q894 -23 620 -23Q367 -23 236 87T104 395Q104 548 190 652T441 839ZM544 726Q418 662 350 586T281 406Q281 277 373 205T629 132Q825 132 985 259Q911 339 765 493T544 726ZM660 1345Q567 1345 511 1298T455 1165Q455 1097 491 1041T605
910Q666 940 703 962T781 1016T839 1087T858 1171Q858 1254 801 1299T660 1345Z" />
<glyph unicode="&apos;" horiz-adv-x="423" d="M283 1486L263 975H148L127 1486H283Z" />
<glyph unicode="(" horiz-adv-x="609" d="M103 598Q103 1088 376 1486H531Q273 1084 273 602Q273 376 341 146T531 -271H378Q249 -92 176 132T103 598Z" />
<glyph unicode=")" horiz-adv-x="609" d="M506 598Q506 357 433 133T230 -271H78Q200 -84 268 146T336 602Q336 1082 77 1486H232Q506 1082 506 598Z" />
<glyph unicode="*" horiz-adv-x="1105" d="M643 1522L607 1111L966 1262L1016 1091L649 1008Q660 993 756 866T901 675Q875 659 824 628T747 581L547 943L358 581L202 675L450 1008L87 1091L137 1262L494 1111L457 1522H643Z" />
<glyph unicode="+" horiz-adv-x="1126" d="M637 718H1027V582H636V153H499V582H102V718H500V1142H637V718Z" />
<glyph unicode="," horiz-adv-x="505" d="M109 -278Q112 -249 126 -125T149 85T161 234H358V190Q309 -8 214 -278H109Z" />
<glyph unicode="-" horiz-adv-x="672" d="M86 497V644H586V497H86Z" />
<glyph unicode="." horiz-adv-x="494" d="M261 -12Q199 -12 164 27T128 120Q128 174 163 213T261 252T359 213T394 120T359 27T261 -12Z" />
<glyph unicode="/" horiz-adv-x="952" d="M194 -218H50L726 1466H872L194 -218Z" />
<glyph unicode="0" horiz-adv-x="1241" d="M755 -23T622 -23T389 35T229 200T139 444T109 751Q109 890 128 1008T189 1222T290 1385T435 1488T622 1525Q750 1525 848 1469T1008 1310T1101 1066T1132 751Q1132 582 1103 444T1014 200T855 36ZM724 1373T622 1373T447
1293T338 1075T301 757Q301 574 337 434T447 211T622 129T797 211T906 433T943 757Q943 937 907 1074T797 1292Z" />
<glyph unicode="1" horiz-adv-x="626" d="M302 1496H461V0H284V1311Q183 1245 37 1198V1365Q53 1372 102 1393T175 1425T237 1456T302 1496Z" />
<glyph unicode="2" horiz-adv-x="1116" d="M113 0L90 164L607 738Q659 796 707 888T778 1044L801 1107Q801 1231 732 1299T536 1368Q324 1368 202 1245L144 1395Q282 1525 548 1525Q752 1525 873 1415T994 1119Q990 1105 982 1082T948 990T892 861T819 727T728
605L306 154H999L988 0H113Z" />
<glyph unicode="3" horiz-adv-x="1103" d="M496 -23Q362 -23 258 12T105 93L161 240Q302 129 497 129Q647 129 735 203T824 412Q824 485 802 539T742 627T646 681T526 710T383 721Q373 721 353 721T323 722V871H373Q443 872 496 878T603 902T692 947T749 1022T771
1133Q771 1373 496 1373Q397 1373 310 1344T161 1266L105 1412Q254 1525 534 1525Q647 1525 743 1484T901 1357T963 1156Q963 1016 894 926T700 797Q840 767 919 666T999 410Q999 213 858 95T496 -23Z" />
<glyph unicode="4" horiz-adv-x="1211" d="M1122 371H952V0H784V371H108V524L765 1496H952V516H1136L1122 371ZM784 1269L284 516H784V1269Z" />
<glyph unicode="5" horiz-adv-x="1177" d="M1004 1496L990 1332H379Q369 1041 364 861Q477 933 609 933Q720 933 807 898T950 800T1035 656T1064 477Q1064 250 919 114T523 -23Q272 -23 121 114L186 255Q334 139 529 139Q693 139 788 232T883 475Q883 609 803
692T575 776T337 677L198 696L237 1496H1004Z" />
<glyph unicode="6" horiz-adv-x="1199" d="M637 921Q763 921 870 862T1042 693T1107 449Q1107 245 970 111T607 -23Q490 -23 394 16T235 123T138 280T103 472Q103 635 162 763T378 1089Q416 1137 498 1237T644 1413L707 1489H938L412 861Q525 921 637 921ZM292
453Q292 364 325 292T430 175T601 129Q749 129 833 220T918 446Q918 588 834 679T601 771Q444 771 368 682T292 453Z" />
<glyph unicode="7" horiz-adv-x="1052" d="M261 0L775 1341H100L111 1496H978V1360L443 0H261Z" />
<glyph unicode="8" horiz-adv-x="1182" d="M594 -23Q458 -23 349 22T171 162T103 385Q103 528 185 634T414 788Q134 887 134 1148Q134 1325 262 1425T594 1525Q797 1525 923 1425T1049 1148Q1049 1016 981 926T791 788Q926 740 1003 634T1080 385Q1080 193 942
85T594 -23ZM594 703Q451 670 365 593T279 397Q279 274 368 202T594 129T817 201T904 397Q904 516 820 593T594 703ZM594 1373Q476 1373 394 1314T311 1152Q311 916 594 853Q873 916 873 1152Q873 1255 792 1314T594 1373Z" />
<glyph unicode="9" horiz-adv-x="1165" d="M556 598Q429 598 323 653T151 814T86 1053Q86 1257 226 1391T592 1525Q709 1525 804 1488T961 1385T1056 1232T1090 1042Q1090 899 1041 783T872 504Q829 447 729 321T549 98L470 0H250L781 658Q668 598 556 598ZM901
1061Q901 1198 824 1285T598 1373Q449 1373 362 1282T275 1056Q275 916 359 832T592 748Q750 748 825 835T901 1061Z" />
<glyph unicode=":" horiz-adv-x="494" d="M146 893V1124H352V893H146ZM146 -25V208H352V-25H146Z" />
<glyph unicode=";" horiz-adv-x="518" d="M174 893V1124H380V893H174ZM376 197L251 -310H138L194 197H376Z" />
<glyph unicode="&lt;" horiz-adv-x="1175" d="M1061 146L103 605V702L1063 1195V1037L288 658L1061 304V146Z" />
<glyph unicode="=" horiz-adv-x="1228" d="M132 377V519H1097V377H132ZM131 799V943H1097V799H131Z" />
<glyph unicode="&gt;" horiz-adv-x="1176" d="M115 311L889 658L117 1044V1200L1075 701V604L115 152V311Z" />
<glyph unicode="?" horiz-adv-x="865" d="M404 435H317Q317 499 346 582T418 744T501 902T572 1056T602 1186Q601 1281 541 1327T377 1373Q248 1373 118 1292L73 1427Q196 1524 404 1524Q566 1524 665 1439T765 1200Q765 1123 743 1050T680 908T597 773T499 615T404
435ZM242 67T242 120T277 212T375 252Q438 252 473 213T508 120T473 27T375 -12Q313 -12 278 27Z" />
<glyph unicode="@" horiz-adv-x="1814" d="M1703 784Q1703 667 1668 566T1574 399T1441 296T1290 259Q1209 259 1155 304T1090 430Q1045 366 977 317T822 268Q692 268 615 361T538 616Q538 823 649 961T956 1099Q1099 1099 1260 1044Q1253 994 1239 900T1217 751T1202
631T1195 523Q1195 381 1306 381Q1407 381 1489 501T1572 791Q1572 1056 1397 1212T942 1368Q741 1368 582 1275T334 1018T245 649Q245 343 419 169T886 -5Q1135 -5 1332 108L1367 -3Q1177 -131 885 -131Q535 -131 323 78T111 645Q111 823 173 980T345 1249T612
1427T951 1492Q1165 1492 1335 1406T1604 1158T1703 784ZM680 609Q680 510 720 453T841 396Q947 396 1002 483T1077 730Q1086 801 1103 958Q1046 978 957 978Q865 978 802 927T709 795T680 609Z" />
<glyph unicode="A" horiz-adv-x="1302" d="M892 614Q681 1227 659 1303Q659 1303 416 614H892ZM1121 0L948 469H358L179 0H3L571 1482H748L1299 0H1121Z" />
<glyph unicode="B" horiz-adv-x="1286" d="M347 704V142H656Q844 142 938 211T1032 428Q1032 581 931 642T614 704H347ZM347 843H664Q819 843 898 897T977 1089Q977 1228 883 1280T589 1333H347V843ZM174 1479H598Q883 1479 1020 1392T1158 1115Q1158 1087 1155
1060T1137 989T1097 911T1024 840T910 783Q1059 755 1136 657T1213 421Q1213 220 1082 110T690 0H174V1479Z" />
<glyph unicode="C" horiz-adv-x="1290" d="M823 1352Q656 1352 536 1271T356 1053T297 738Q297 605 329 496T425 304T591 176T827 130Q998 130 1181 219L1210 72Q1061 -22 807 -22Q640 -22 508 33T289 190T157 432T112 745Q112 911 161 1051T299 1291T523 1448T821
1504Q1070 1504 1241 1394L1173 1253Q1009 1352 823 1352Z" />
<glyph unicode="D" horiz-adv-x="1502" d="M1205 736Q1205 1046 1045 1187T579 1328H347V151H608Q900 151 1052 298T1205 736ZM1390 741Q1390 380 1185 190T613 0H174V1479H584Q769 1479 915 1436T1168 1304T1333 1073T1390 741Z" />
<glyph unicode="E" horiz-adv-x="1143" d="M174 0V1479H1022L1015 1326H347V842H982V691H347V153H1037L1029 0H174Z" />
<glyph unicode="F" horiz-adv-x="1041" d="M347 0H174V1479H995L988 1326H347V807H958V660H347V0Z" />
<glyph unicode="G" horiz-adv-x="1461" d="M819 -22Q650 -22 516 34T294 192T160 433T113 738Q113 962 198 1134T451 1405T849 1504Q1104 1504 1297 1388L1231 1245Q1045 1352 851 1352Q716 1352 610 1306T436 1177T333 983T297 738Q297 456 437 293T852 129Q1008
129 1169 192V614H820L826 765H1331V89Q1205 29 1088 4T819 -22Z" />
<glyph unicode="H" horiz-adv-x="1488" d="M1314 0H1141V692H347V0H174V1479H347V844H1141V1479H1314V0Z" />
<glyph unicode="I" horiz-adv-x="540" d="M355 0H182V1479H355V0Z" />
<glyph unicode="J" horiz-adv-x="550" d="M226 181V1496H403V241Q403 168 400 118T388 17T362 -68T316 -131T247 -178T148 -204T16 -214H-19L-40 -72H34Q87 -72 123 -59T180 -27T210 29T223 96T226 181Z" />
<glyph unicode="K" horiz-adv-x="1242" d="M1260 0H1048L482 706L347 587V0H173V1479H347V753L997 1479H1214L614 813L1260 0Z" />
<glyph unicode="L" horiz-adv-x="1021" d="M174 0V1479H348V154H999L993 0H174Z" />
<glyph unicode="M" horiz-adv-x="1817" d="M822 91L368 1147L330 1248L337 886V0H175V1479H399L914 301L1424 1479H1642V0H1474V890L1481 1244L1444 1143L991 91H822Z" />
<glyph unicode="N" horiz-adv-x="1516" d="M1342 0H1146L378 1164L328 1233Q336 1023 336 858V0H174V1479H367L1137 315L1188 246Q1181 565 1181 615V1479H1342V0Z" />
<glyph unicode="O" horiz-adv-x="1626" d="M296 739Q296 454 427 292T814 129T1199 291T1329 739Q1329 1031 1199 1192T815 1353T429 1192T296 739ZM1514 739Q1514 570 1468 430T1334 190T1113 34T814 -22Q590 -22 431 73T192 339T112 740Q112 1095 297 1300T815
1505Q1143 1505 1328 1299T1514 739Z" />
<glyph unicode="P" horiz-adv-x="1159" d="M323 0H146V1496H628Q738 1496 827 1473T985 1403T1092 1277T1130 1093Q1130 1006 1114 938T1059 809T957 710T796 648T567 625Q464 625 323 638V0ZM584 778Q682 778 752 797T859 844T918 917T945 999T950 1090Q950 1217
865 1277T632 1337H323V780Q516 778 584 778Z" />
<glyph unicode="Q" horiz-adv-x="1626" d="M1267 -470Q1219 -422 1108 -275T942 -13Q880 -22 814 -22Q590 -22 431 73T192 339T112 740Q112 1095 297 1300T815 1505Q1143 1505 1328 1299T1514 739Q1514 482 1409 297T1108 31Q1124 3 1152 -42T1253 -190T1385 -350L1267
-470ZM558 129T814 129T1199 291T1329 739Q1329 1031 1199 1192T815 1353T429 1192T296 739Q296 454 427 292Z" />
<glyph unicode="R" horiz-adv-x="1339" d="M324 1341V841Q365 841 493 839T692 837Q883 837 958 900T1033 1102Q1033 1223 961 1282T720 1341H324ZM1272 0H1072L868 464Q785 651 762 689Q689 684 589 684L324 692V0H147V1496H620Q702 1496 765 1492T890 1478T999
1449T1085 1401T1149 1330T1188 1233T1202 1105Q1202 965 1129 864T920 724Q920 722 940 688T987 605T1030 522L1272 0Z" />
<glyph unicode="S" horiz-adv-x="1227" d="M146 244Q377 130 641 130Q966 130 966 426Q966 522 915 581T727 675L433 749Q96 834 96 1109Q96 1320 241 1422T642 1525Q776 1525 893 1496T1089 1418L1039 1277Q972 1314 862 1343T638 1372Q276 1372 276 1121Q276
1036 331 985T498 906L779 838Q959 795 1052 701T1145 432Q1145 206 1007 92T630 -23Q452 -23 314 13T94 100L146 244Z" />
<glyph unicode="T" horiz-adv-x="1099" d="M636 0H462V1326H7V1479H1091V1326H636V0Z" />
<glyph unicode="U" horiz-adv-x="1438" d="M1277 1479V519Q1277 264 1138 121T713 -22T292 121T156 521V1479H330V518Q330 317 425 222T719 127Q913 127 1008 223T1104 519V1479H1277Z" />
<glyph unicode="V" horiz-adv-x="1242" d="M1062 1479H1247L710 0H530L-5 1479H180L509 541Q573 358 620 196Q635 271 732 544Q888 991 1062 1479Z" />
<glyph unicode="W" horiz-adv-x="2013" d="M446 0L0 1479H181L547 206L913 1452H1108L1463 205L1832 1479H2013L1561 0H1372L1012 1243L634 0H446Z" />
<glyph unicode="X" horiz-adv-x="1240" d="M1231 0H1032L620 661L197 0H9L515 772L42 1479H243L626 887L1024 1479H1209L733 775L1231 0Z" />
<glyph unicode="Y" horiz-adv-x="1194" d="M591 754L1007 1479H1195L673 590V0H498V586L-1 1479H186L591 754Z" />
<glyph unicode="Z" horiz-adv-x="1184" d="M86 0V136L890 1325H115V1479H1111V1350L302 154H1118L1112 0H86Z" />
<glyph unicode="[" horiz-adv-x="676" d="M596 -293H143V1483H596V1351H316V-161H596V-293Z" />
<glyph unicode="\" horiz-adv-x="843" d="M208 1464L807 -60H651L52 1464H208Z" />
<glyph unicode="]" horiz-adv-x="676" d="M80 -161H360V1351H80V1483H533V-293H80V-161Z" />
<glyph unicode="^" horiz-adv-x="1157" d="M69 589L514 1516H616L1086 589H943L565 1335L214 589H69Z" />
<glyph unicode="_" horiz-adv-x="1085" d="M1012 -304H73V-170H1012V-304Z" />
<glyph unicode="`" horiz-adv-x="643" d="M408 1251L85 1638H335L520 1251H408Z" />
<glyph unicode="a" horiz-adv-x="1098" d="M460 112Q579 112 669 177T786 354V539Q781 539 726 534T653 528Q436 509 351 457T265 290Q265 202 317 157T460 112ZM823 0Q808 64 794 138Q703 47 623 12T435 -23Q281 -23 188 57T94 289Q94 457 221 538T589 639Q622
642 688 647T788 656V753Q788 869 734 925T564 981Q402 981 237 901Q232 913 211 970T189 1030Q262 1071 362 1095T567 1120Q772 1120 862 1031T953 726V0H823Z" />
<glyph unicode="b" horiz-adv-x="1215" d="M642 981Q483 981 399 872T314 550Q314 116 641 116Q722 116 783 149T880 243T933 380T951 549Q951 675 922 769T821 922T642 981ZM659 1120Q805 1120 911 1046T1070 845T1123 554Q1123 384 1071 255T912 52T657 -23Q548
-23 458 24T308 152L291 0H148V1523L315 1533V1170Q315 1036 311 940Q369 1023 461 1071T659 1120Z" />
<glyph unicode="c" horiz-adv-x="968" d="M607 -23Q365 -23 229 134T92 545Q93 801 231 960T611 1120Q696 1120 775 1099T901 1044L855 914Q738 977 608 977Q449 977 357 861T264 544Q264 348 355 234T609 119Q738 119 873 189L894 56Q785 -23 607 -23Z" />
<glyph unicode="d" horiz-adv-x="1211" d="M571 121Q736 121 816 227T897 530Q897 752 820 864T569 977Q492 977 433 944T338 852T284 717T265 549Q265 421 296 327T398 177T571 121ZM900 159Q846 76 756 27T555 -22Q338 -22 215 132T92 553Q92 807 217 963T552
1120Q661 1120 757 1073T902 945L899 1040V1523L1064 1533V0H922L900 159Z" />
<glyph unicode="e" horiz-adv-x="1108" d="M702 982T574 982T365 892T270 644H849Q849 807 776 894ZM607 -23Q368 -23 231 129T93 545Q93 800 226 958T576 1120Q780 1120 899 981T1019 608Q1019 596 1019 564T1018 518H265Q268 331 361 227T613 122Q787 122 962
214L988 79Q821 -23 607 -23Z" />
<glyph unicode="f" horiz-adv-x="669" d="M560 1416Q456 1416 418 1356T379 1148V1097H643V973H379V0H212V973H34L48 1083L212 1097V1146Q214 1358 291 1453T542 1549Q609 1549 706 1534L695 1403Q606 1416 560 1416Z" />
<glyph unicode="g" horiz-adv-x="1187" d="M569 143Q654 143 718 173T818 256T871 374T889 516V597Q889 677 871 744T816 865T716 949T570 979Q501 979 445 953T352 885T290 786T253 671T242 554Q242 496 254 439T292 328T355 234T447 168T569 143ZM312 -502L297
-351H501Q586 -351 649 -339T754 -300T822 -239T861 -152T879 -46T884 83V180Q824 94 745 48T544 1Q450 1 371 33T237 120T144 245T88 392T70 545Q70 665 99 767T187 949T339 1074T556 1120Q664 1120 744 1079T889 951V1097H1052V79Q1052 9 1049 -43T1032 -160T995
-270T931 -362T832 -437T689 -484T497 -502H312Z" />
<glyph unicode="h" horiz-adv-x="1112" d="M882 0V663Q882 828 830 903T646 978Q520 978 434 915T321 752Q312 677 312 585V0H145V1523L312 1533V1087Q312 1030 308 946Q449 1120 682 1120Q1049 1120 1049 689V0H882Z" />
<glyph unicode="i" horiz-adv-x="511" d="M340 1097V0H172V1097H340ZM340 1496V1298H172V1496H340Z" />
<glyph unicode="j" horiz-adv-x="445" d="M330 1097V-139Q330 -245 317 -310T266 -420T164 -484T-3 -502H-55L-77 -351H-25Q14 -351 42 -347T91 -335T125 -312T145 -282T156 -238T161 -186T162 -121V1097H330ZM330 1496V1298H162V1496H330Z" />
<glyph unicode="k" horiz-adv-x="1041" d="M145 0V1523L311 1533V736V596Q317 602 329 616T348 637Q435 732 798 1097H1010L554 635L1042 0H834L433 540L311 435V0H145Z" />
<glyph unicode="l" horiz-adv-x="569" d="M438 -20Q278 -20 212 66T145 365V1523L311 1533V431Q311 363 312 322T320 242T336 182T365 146T410 124T476 118Q508 118 602 130L611 -3Q508 -20 438 -20Z" />
<glyph unicode="m" horiz-adv-x="1773" d="M1536 0V571Q1536 651 1533 705T1517 815T1482 903T1419 956T1323 977Q1213 977 1136 918T1025 752Q1016 680 1016 598V0H849V589Q849 663 844 717T825 823T788 907T725 958T632 977Q512 977 431 916T321 754Q312 677
312 587V0H145Q143 1029 143 1097H283L304 940Q354 1016 446 1068T655 1120Q716 1120 767 1108T853 1076T915 1031T957 979T982 925Q1102 1120 1349 1120Q1532 1120 1617 1016T1703 706V0H1536Z" />
<glyph unicode="n" horiz-adv-x="1184" d="M143 0V1097H283L304 940Q369 1021 466 1070T677 1120Q867 1120 958 1014T1049 686V0H882Q882 660 881 707Q877 847 825 912T649 977Q520 977 434 915T322 754Q312 687 312 600V0H143Z" />
<glyph unicode="o" horiz-adv-x="1201" d="M265 546Q265 351 351 234T604 116Q768 116 851 233T935 548Q935 749 853 864T601 980Q437 980 351 862T265 546ZM1108 549Q1108 294 972 136T596 -23Q365 -23 229 137T92 548Q92 804 229 962T605 1120Q840 1120 974
962T1108 549Z" />
<glyph unicode="p" horiz-adv-x="1201" d="M143 -476V1097H290L306 948Q450 1120 652 1120Q802 1120 906 1045T1059 842T1109 543Q1109 379 1055 252T897 51T652 -23Q546 -23 453 24T304 150Q310 42 310 -60V-465L143 -476ZM629 118Q705 118 765 152T862 247T918
383T937 549Q937 737 858 857T627 978Q309 978 309 567Q309 344 383 231T629 118Z" />
<glyph unicode="q" horiz-adv-x="1211" d="M552 -23Q409 -23 305 51T148 251T96 541Q96 711 148 840T306 1045T560 1120Q765 1120 905 942L917 1097H1065V-466L898 -476V11Q898 84 903 159Q847 75 756 26T552 -23ZM574 121Q740 121 818 225T899 529Q899 750 822
863T573 976Q469 976 399 917T298 764T268 547Q268 454 285 379T339 245T434 154T574 121Z" />
<glyph unicode="r" horiz-adv-x="746" d="M635 1107Q680 1107 717 1101L711 947Q665 955 631 955Q491 955 404 858T316 616V0H149Q148 1010 148 1097H287L303 900Q360 993 448 1050T635 1107Z" />
<glyph unicode="s" horiz-adv-x="953" d="M470 -23Q358 -23 264 1T110 63L131 204Q298 115 459 115Q703 115 710 287Q710 360 658 402T454 496L371 525Q227 573 166 644T103 821Q103 950 206 1035T490 1120Q676 1120 829 1048L780 920Q625 984 490 984Q385 984
326 943T266 826Q266 762 309 728T481 650Q514 638 564 622Q730 568 799 495T868 296Q866 144 759 61T470 -23Z" />
<glyph unicode="t" horiz-adv-x="710" d="M493 -20Q331 -20 263 59T191 314V973H28L35 1083L190 1097L247 1348L357 1352V1097H662V973H357V344Q357 219 395 168T525 117Q558 117 668 133L675 1Q556 -20 493 -20Z" />
<glyph unicode="u" horiz-adv-x="1100" d="M105 366V1097H273V364Q273 292 293 242T352 165T439 125T551 113Q681 113 753 170T826 364V1097H994V366Q994 282 970 215T906 104T808 30T688 -12T551 -25Q479 -25 415 -12T294 30T195 104T129 216T105 366Z" />
<glyph unicode="v" horiz-adv-x="1031" d="M424 0L-1 1097H178L420 445Q420 445 520 167Q554 274 614 443Q690 656 850 1097H1028L606 0H424Z" />
<glyph unicode="w" horiz-adv-x="1606" d="M1090 0Q859 738 804 919Q773 809 733 681T663 461T585 223T512 0H332L19 1097H192L427 199Q476 359 715 1097H904Q1142 343 1184 202L1416 1097H1587L1271 0H1090Z" />
<glyph unicode="x" horiz-adv-x="1057" d="M433 558L46 1097H237L530 679L824 1097H1015L627 556L1025 0H840L531 441L222 0H31L433 558Z" />
<glyph unicode="y" horiz-adv-x="1022" d="M3 1097H180L526 184L834 1097H1011Q567 -125 552 -163Q483 -336 385 -416T127 -497Q79 -497 26 -489L16 -347Q72 -351 100 -351Q213 -351 271 -310T376 -154Q417 -49 437 8L3 1097Z" />
<glyph unicode="z" horiz-adv-x="912" d="M849 0H83V126L644 965H98V1097H831V965L271 132H849V0Z" />
<glyph unicode="{" horiz-adv-x="733" d="M454 84Q454 -44 493 -93T641 -143V-281Q454 -280 372 -197T289 62V269Q289 340 282 387T252 475T187 536T75 556V701Q107 701 132 704T178 714T214 729T241 750T261 775T274 807T283 843T287 886T288 933T289 987V1230Q289
1385 378 1462T641 1539V1401Q532 1400 493 1350T454 1173V908Q454 817 410 751T269 626Q364 596 409 521T454 349V84Z" />
<glyph unicode="|" horiz-adv-x="799" d="M327 1579H472V-400H327V1579Z" />
<glyph unicode="}" horiz-adv-x="738" d="M466 632Q371 662 327 736T282 908V1173Q282 1299 243 1349T95 1401V1539Q279 1539 363 1455T447 1195V987Q447 929 451 891T467 814T503 753T565 716T662 701V556Q607 556 568 542T506 505T469 444T452 365T447 269V27Q447
-279 95 -281V-143Q203 -142 242 -93T282 84V349Q282 444 321 502T466 632Z" />
<glyph unicode="~" horiz-adv-x="1255" d="M387 663Q323 663 266 618T172 503L120 608Q158 697 226 751T391 806Q449 806 503 791T638 739Q647 735 672 724T707 709T738 696T769 683T797 674T825 666T849 661T873 659Q932 659 988 703T1081 815L1137 719Q1098
624 1030 571T868 517Q779 517 633 583Q568 613 537 626T464 651T387 663Z" />
<glyph unicode="&#xa0;" horiz-adv-x="511" />
<glyph unicode="&#xa1;" horiz-adv-x="586" d="M426 1148T426 1095T391 1003T293 963Q230 963 195 1002T160 1095T195 1188T293 1227Q355 1227 390 1188ZM195 -281V-139L251 780H330L392 -139V-281H195Z" />
<glyph unicode="&#xa2;" horiz-adv-x="1102" d="M547 1496H642V1314Q809 1303 896 1221L854 1102Q759 1166 642 1176V307Q755 318 855 388L897 268Q803 182 642 170V1H547V170Q398 183 288 265T124 471T70 742Q71 850 104 949T197 1126T348 1254T547 1314V1496ZM547
310V1174Q413 1154 327 1032T241 737Q241 566 324 449T547 310Z" />
<glyph unicode="&#xa3;" horiz-adv-x="1132" d="M696 1503Q899 1503 1053 1373L975 1253Q838 1357 697 1357Q558 1357 500 1264T441 993V815H851V681H441V519Q441 382 417 296T319 153Q401 158 413 158H1068V0H96L85 139Q184 176 226 251T269 449V681H83V815H269V911Q269
981 274 1041T291 1162T324 1273T378 1366T455 1439T560 1486T696 1503Z" />
<glyph unicode="&#xa4;" horiz-adv-x="1151" d="M267 860T267 732T357 514T576 423Q705 423 795 513T886 732T795 951T576 1042T358 951ZM158 732Q158 867 241 981L55 1160L129 1232L313 1057Q426 1150 576 1150Q724 1150 838 1056L1025 1232L1095 1158L911 981Q994
864 994 732Q994 592 912 482L1094 306L1025 232L838 408Q723 315 576 315Q425 315 313 408L129 233L56 305L241 482Q158 595 158 732Z" />
<glyph unicode="&#xa5;" horiz-adv-x="1135" d="M567 805L936 1479H1108L685 729H991V605H645V423H992V299H645V0H487V299H134V423H487V605H135V729H439L25 1479H203L567 805Z" />
<glyph unicode="&#xa6;" horiz-adv-x="788" d="M322 310H468V-399H322V310ZM322 1579H468V872H322V1579Z" />
<glyph unicode="&#xa7;" horiz-adv-x="1017" d="M141 797Q141 884 186 951T307 1059Q233 1106 197 1164T160 1307Q160 1429 248 1500T497 1582Q595 1591 671 1578T836 1530Q831 1505 823 1458T810 1385Q675 1446 546 1446Q318 1446 318 1311Q318 1249 371 1206T570
1105Q730 1040 804 968T879 789Q879 703 836 632T719 514Q868 429 868 278Q868 133 753 52T446 -29Q260 -29 145 30V185Q292 109 448 109Q571 109 640 151T709 266Q709 290 704 308T683 344T653 372T604 401T544 429T464 462Q292 528 217 602T141 797ZM292 813Q292
743 345 698T527 602L584 578Q727 665 727 768Q727 802 712 831T675 881T610 923T533 959T437 995Q373 967 333 920T292 813Z" />
<glyph unicode="&#xa8;" horiz-adv-x="770" d="M663 1254H508V1466H663V1254ZM272 1254H118V1466H272V1254Z" />
<glyph unicode="&#xa9;" horiz-adv-x="1841" d="M1701 781Q1701 624 1658 491T1539 264T1363 103T1145 6T902 -26Q783 -26 670 5T457 103T281 263T161 490T117 781Q117 937 160 1070T278 1297T453 1457T665 1554T897 1586Q1023 1586 1140 1554T1359 1456T1537
1296T1657 1070T1701 781ZM902 67Q1067 67 1199 123T1415 276T1543 502T1588 778T1543 1054T1413 1281T1195 1436T897 1493Q740 1493 613 1437T402 1283T275 1057T230 783Q230 634 275 505T403 278T615 124T902 67ZM1191 459L1230 352Q1175 317 1087 294T909 270Q703
270 569 416T434 785Q434 1010 568 1155T919 1301Q1098 1301 1227 1211L1167 1114Q1122 1146 1052 1164T910 1182Q825 1182 759 1150T652 1063T591 939T570 789Q570 610 661 499T929 387Q997 387 1072 408T1191 459Z" />
<glyph unicode="&#xaa;" horiz-adv-x="807" d="M134 741H679V635H134V741ZM369 937Q453 937 496 1002T543 1168V1195Q528 1193 496 1191T444 1186T396 1180T348 1169T309 1152T275 1128T255 1094T247 1048Q247 937 369 937ZM350 826Q253 826 191 887T128 1050Q128
1106 149 1147T204 1212T295 1253T408 1277T543 1289V1307Q541 1397 513 1435T413 1473Q345 1473 296 1457T198 1385L137 1463Q234 1590 419 1590Q525 1590 592 1526T660 1330L658 982Q658 956 664 847H546L543 926Q476 826 350 826Z" />
<glyph unicode="&#xab;" horiz-adv-x="1000" d="M390 149L120 520L100 567L393 970L536 935L262 561L531 185L390 149ZM771 149Q730 204 655 308T524 490L469 567L773 970L901 935L642 561L898 185L771 149Z" />
<glyph unicode="&#xac;" horiz-adv-x="1225" d="M1100 825V260H965V681H109V825H1100Z" />
<glyph unicode="&#xad;" horiz-adv-x="946" d="M108 236V386H843V236H108Z" />
<glyph unicode="&#xae;" horiz-adv-x="1824" d="M1701 781Q1701 624 1658 491T1539 264T1363 103T1145 6T902 -26Q783 -26 670 5T457 103T281 263T161 490T117 781Q117 937 160 1070T278 1297T453 1457T665 1554T897 1586Q1023 1586 1140 1554T1359 1456T1537
1296T1657 1070T1701 781ZM902 67Q1067 67 1199 123T1415 276T1543 502T1588 778T1543 1054T1413 1281T1195 1436T897 1493Q740 1493 613 1437T402 1283T275 1057T230 783Q230 634 275 505T403 278T615 124T902 67ZM857 843Q1005 843 1073 875T1141 999Q1141 1093
1078 1121T847 1149H731V843H857ZM914 716H731V301H599V1277H857Q1300 1277 1300 1007Q1300 899 1239 826T1040 735Q1073 709 1105 666T1161 580T1232 453T1320 301H1171L1046 525Q1014 584 998 611T959 668T914 716Z" />
<glyph unicode="&#xaf;" horiz-adv-x="1062" d="M886 1625V1503H176V1625H886Z" />
<glyph unicode="&#xb0;" horiz-adv-x="846" d="M235 1286T235 1205T290 1067T424 1010T557 1067T613 1205T558 1342T424 1399Q347 1399 291 1343ZM112 1075T112 1205T203 1427T423 1519T643 1427T735 1205Q735 1077 644 983T423 889Q295 889 204 982Z" />
<glyph unicode="&#xb1;" horiz-adv-x="1202" d="M118 0V143H1088V0H118ZM668 790H1086V647H670V233H533V647H118V790H532V1206H668V790Z" />
<glyph unicode="&#xb2;" horiz-adv-x="763" d="M615 650H134V769Q209 854 238 886T323 985T401 1084T453 1162T493 1241T504 1303Q504 1358 471 1391T380 1424Q273 1424 217 1282L143 1367Q173 1454 237 1502T387 1551Q487 1551 552 1483T617 1305Q617 1252 600
1197T557 1096T486 990T400 888T297 778H615V650Z" />
<glyph unicode="&#xb3;" horiz-adv-x="756" d="M352 1424Q270 1424 185 1339L132 1442Q174 1492 233 1522T354 1553Q451 1553 522 1485T593 1305Q593 1174 498 1112Q613 1048 613 899Q613 778 537 705T350 631Q219 631 132 735L187 838Q264 753 346 753Q411 753
454 794T498 903Q498 979 450 1012T308 1046H260V1174H304Q478 1174 478 1303Q478 1364 444 1394T352 1424Z" />
<glyph unicode="&#xb4;" horiz-adv-x="639" d="M567 1638L242 1250H128L314 1638H567Z" />
<glyph unicode="&#xb6;" horiz-adv-x="1068" d="M393 -158V847Q286 849 198 903T61 1039T13 1212Q13 1281 38 1341T115 1452T255 1531T461 1561H927V1430H852V-158H737V1430H518V-158H393Z" />
<glyph unicode="&#xb7;" horiz-adv-x="468" d="M318 759V561H150V759H318Z" />
<glyph unicode="&#xb8;" horiz-adv-x="596" d="M268 -410H114L226 16H312L268 -410Z" />
<glyph unicode="&#xb9;" horiz-adv-x="601" d="M122 1334V1436Q216 1484 271 1539L368 1538V746H492V650H135V746H253V1409Q205 1377 122 1334Z" />
<glyph unicode="&#xba;" horiz-adv-x="899" d="M256 1207Q256 1090 307 1016T453 941Q543 941 594 1016T645 1203Q645 1319 593 1396T449 1473Q360 1473 308 1397T256 1207ZM303 1590T451 1590T684 1481T769 1205Q769 1041 685 934T453 826Q299 826 215 933T131
1210Q131 1374 217 1482Z" />
<glyph unicode="&#xbb;" horiz-adv-x="1012" d="M534 554L230 149L102 185L361 562L104 935L231 970L534 554ZM915 554L622 149L483 185L753 562L488 935L625 970L915 554Z" />
<glyph unicode="&#xbc;" horiz-adv-x="1609" d="M122 1334V1436Q216 1484 271 1539L368 1538V746H492V650H135V746H253V1409Q205 1377 122 1334ZM1420 40H1313V240H923V339L1302 899H1422V358H1516L1526 240H1420V40ZM1165 1547H1300L379 0H245L1165 1547ZM1066
358H1312Q1312 688 1313 716L1066 358Z" />
<glyph unicode="&#xbd;" horiz-adv-x="1591" d="M245 0L1165 1547H1300L379 0H245ZM934 -30V63Q1157 287 1218 355Q1367 527 1370 617Q1370 682 1330 721T1233 760T1119 729T1020 634L943 699Q977 778 1060 823T1237 868Q1347 868 1423 807T1499 629Q1499 593
1492 559T1465 486T1430 421T1376 350T1319 284T1247 212T1175 144T1093 69H1487V-30H934ZM135 650V746H253V1409Q205 1377 122 1334V1436Q216 1484 271 1539L368 1538V746H492V650H135Z" />
<glyph unicode="&#xbe;" horiz-adv-x="1630" d="M1085 361H1331Q1331 664 1334 721L1085 361ZM331 0L1249 1547H1393L465 0H331ZM1334 44V245H942V343L1321 903H1442V361H1538L1546 245H1441V44H1334ZM333 631Q203 631 116 735L168 838Q245 753 328 753Q393 753
438 794T484 903Q484 1046 293 1046H244V1174H288Q462 1174 462 1303Q462 1364 428 1394T337 1424Q251 1424 166 1339L116 1442Q158 1492 217 1522T338 1553Q438 1553 519 1485T600 1305Q600 1175 487 1112Q620 1049 620 899Q620 780 534 706T333 631Z" />
<glyph unicode="&#xbf;" horiz-adv-x="865" d="M434 779H521Q521 715 492 632T420 470T337 312T266 158T236 28Q237 -67 297 -113T461 -159Q590 -159 720 -78L765 -213Q642 -310 434 -310Q272 -310 173 -225T73 14Q73 91 95 164T158 306T241 441T339 599T434 779ZM596
1147T596 1094T561 1002T463 962Q400 962 365 1001T330 1094T365 1187T463 1226Q525 1226 560 1187Z" />
<glyph unicode="&#xc0;" horiz-adv-x="1302" d="M595 1627L272 2014H522L707 1627H595ZM892 614Q681 1227 659 1303Q659 1303 416 614H892ZM1121 0L948 469H358L179 0H3L571 1482H748L1299 0H1121Z" />
<glyph unicode="&#xc1;" horiz-adv-x="1302" d="M1033 2015L708 1627H594L780 2015H1033ZM892 614Q681 1227 659 1303Q659 1303 416 614H892ZM1121 0L948 469H358L179 0H3L571 1482H748L1299 0H1121Z" />
<glyph unicode="&#xc2;" horiz-adv-x="1302" d="M358 1627L545 2015H758L945 1627H811L650 1899L489 1627H358ZM892 614Q681 1227 659 1303Q659 1303 416 614H892ZM1121 0L948 469H358L179 0H3L571 1482H748L1299 0H1121Z" />
<glyph unicode="&#xc3;" horiz-adv-x="1302" d="M369 1635L287 1690Q322 1788 369 1829T476 1870Q521 1870 582 1846T703 1798T803 1774Q886 1774 928 1872L1014 1836Q979 1720 929 1674T813 1627Q767 1627 705 1650T584 1696T485 1720Q408 1720 369 1635ZM892
614Q681 1227 659 1303Q659 1303 416 614H892ZM1121 0L948 469H358L179 0H3L571 1482H748L1299 0H1121Z" />
<glyph unicode="&#xc4;" horiz-adv-x="1302" d="M923 1627H768V1839H923V1627ZM532 1627H378V1839H532V1627ZM892 614Q681 1227 659 1303Q659 1303 416 614H892ZM1121 0L948 469H358L179 0H3L571 1482H748L1299 0H1121Z" />
<glyph unicode="&#xc5;" horiz-adv-x="1302" d="M500 1806T500 1741T544 1631T651 1585T757 1631T802 1741Q802 1806 758 1851T651 1896T545 1851ZM401 1741Q401 1844 474 1918T650 1992Q753 1992 826 1918T900 1741Q900 1639 827 1564T650 1488Q548 1488 475
1562T401 1741ZM892 614Q681 1227 659 1303Q659 1303 416 614H892ZM1121 0L948 469H358L179 0H3L571 1482H748L1299 0H1121Z" />
<glyph unicode="&#xc6;" horiz-adv-x="2092" d="M85 0L1001 1568H1946V1409H1241L1280 882H1911V724H1300L1342 158H1966V0H1183L1152 427H498L258 0H85ZM582 589H1130L1069 1409L582 589Z" />
<glyph unicode="&#xc7;" horiz-adv-x="1290" d="M676 -434H522L634 -8H720L676 -434ZM823 1352Q656 1352 536 1271T356 1053T297 738Q297 605 329 496T425 304T591 176T827 130Q998 130 1181 219L1210 72Q1061 -22 807 -22Q640 -22 508 33T289 190T157 432T112
745Q112 911 161 1051T299 1291T523 1448T821 1504Q1070 1504 1241 1394L1173 1253Q1009 1352 823 1352Z" />
<glyph unicode="&#xc8;" horiz-adv-x="1143" d="M550 1627L227 2014H477L662 1627H550ZM174 0V1479H1022L1015 1326H347V842H982V691H347V153H1037L1029 0H174Z" />
<glyph unicode="&#xc9;" horiz-adv-x="1143" d="M987 2015L662 1627H548L734 2015H987ZM174 0V1479H1022L1015 1326H347V842H982V691H347V153H1037L1029 0H174Z" />
<glyph unicode="&#xca;" horiz-adv-x="1143" d="M312 1627L499 2015H712L899 1627H765L604 1899L443 1627H312ZM174 0V1479H1022L1015 1326H347V842H982V691H347V153H1037L1029 0H174Z" />
<glyph unicode="&#xcb;" horiz-adv-x="1143" d="M878 1627H723V1839H878V1627ZM487 1627H333V1839H487V1627ZM174 0V1479H1022L1015 1326H347V842H982V691H347V153H1037L1029 0H174Z" />
<glyph unicode="&#xcc;" horiz-adv-x="540" d="M212 1627L-111 2014H139L324 1627H212ZM355 0H182V1479H355V0Z" />
<glyph unicode="&#xcd;" horiz-adv-x="540" d="M651 2015L326 1627H212L398 2015H651ZM355 0H182V1479H355V0Z" />
<glyph unicode="&#xce;" horiz-adv-x="540" d="M-25 1627L162 2015H375L562 1627H428L267 1899L106 1627H-25ZM355 0H182V1479H355V0Z" />
<glyph unicode="&#xcf;" horiz-adv-x="540" d="M541 1627H386V1839H541V1627ZM150 1627H-4V1839H150V1627ZM355 0H182V1479H355V0Z" />
<glyph unicode="&#xd0;" horiz-adv-x="1522" d="M147 0V697H29V832H147V1496H519Q680 1496 811 1473T1056 1395T1247 1255T1368 1038T1412 738Q1412 555 1355 414T1193 182T944 46T621 0H147ZM324 155H639Q918 155 1070 301T1223 734Q1223 873 1191 978T1101 1151T957
1263T769 1323T540 1341H324V832H566V697H324V155Z" />
<glyph unicode="&#xd1;" horiz-adv-x="1516" d="M477 1635L395 1690Q430 1788 477 1829T584 1870Q629 1870 690 1846T811 1798T911 1774Q994 1774 1036 1872L1122 1836Q1087 1720 1037 1674T921 1627Q875 1627 813 1650T692 1696T593 1720Q516 1720 477 1635ZM1342
0H1146L378 1164L328 1233Q336 1023 336 858V0H174V1479H367L1137 315L1188 246Q1181 565 1181 615V1479H1342V0Z" />
<glyph unicode="&#xd2;" horiz-adv-x="1626" d="M757 1627L434 2014H684L869 1627H757ZM296 739Q296 454 427 292T814 129T1199 291T1329 739Q1329 1031 1199 1192T815 1353T429 1192T296 739ZM1514 739Q1514 570 1468 430T1334 190T1113 34T814 -22Q590 -22 431
73T192 339T112 740Q112 1095 297 1300T815 1505Q1143 1505 1328 1299T1514 739Z" />
<glyph unicode="&#xd3;" horiz-adv-x="1626" d="M1195 2015L870 1627H756L942 2015H1195ZM296 739Q296 454 427 292T814 129T1199 291T1329 739Q1329 1031 1199 1192T815 1353T429 1192T296 739ZM1514 739Q1514 570 1468 430T1334 190T1113 34T814 -22Q590 -22
431 73T192 339T112 740Q112 1095 297 1300T815 1505Q1143 1505 1328 1299T1514 739Z" />
<glyph unicode="&#xd4;" horiz-adv-x="1626" d="M520 1627L707 2015H920L1107 1627H973L812 1899L651 1627H520ZM296 739Q296 454 427 292T814 129T1199 291T1329 739Q1329 1031 1199 1192T815 1353T429 1192T296 739ZM1514 739Q1514 570 1468 430T1334 190T1113
34T814 -22Q590 -22 431 73T192 339T112 740Q112 1095 297 1300T815 1505Q1143 1505 1328 1299T1514 739Z" />
<glyph unicode="&#xd5;" horiz-adv-x="1626" d="M531 1635L449 1690Q484 1788 531 1829T638 1870Q683 1870 744 1846T865 1798T965 1774Q1048 1774 1090 1872L1176 1836Q1141 1720 1091 1674T975 1627Q929 1627 867 1650T746 1696T647 1720Q570 1720 531 1635ZM296
739Q296 454 427 292T814 129T1199 291T1329 739Q1329 1031 1199 1192T815 1353T429 1192T296 739ZM1514 739Q1514 570 1468 430T1334 190T1113 34T814 -22Q590 -22 431 73T192 339T112 740Q112 1095 297 1300T815 1505Q1143 1505 1328 1299T1514 739Z" />
<glyph unicode="&#xd6;" horiz-adv-x="1626" d="M1085 1627H930V1839H1085V1627ZM694 1627H540V1839H694V1627ZM296 739Q296 454 427 292T814 129T1199 291T1329 739Q1329 1031 1199 1192T815 1353T429 1192T296 739ZM1514 739Q1514 570 1468 430T1334 190T1113
34T814 -22Q590 -22 431 73T192 339T112 740Q112 1095 297 1300T815 1505Q1143 1505 1328 1299T1514 739Z" />
<glyph unicode="&#xd7;" horiz-adv-x="993" d="M876 278L768 181L496 494L224 181L116 278L401 604L116 932L222 1027L496 713L770 1027L876 932L591 604L876 278Z" />
<glyph unicode="&#xd8;" horiz-adv-x="1626" d="M502 -232L377 -189L473 50Q297 136 205 314T112 740Q112 1095 297 1300T815 1505Q940 1505 1047 1473L1136 1693L1267 1647L1175 1420Q1339 1330 1426 1155T1514 739Q1514 570 1468 430T1334 190T1113 34T814 -22Q699
-22 598 4L502 -232ZM989 1329Q911 1353 815 1353Q562 1353 429 1192T296 739Q296 548 356 410T534 199L989 1329ZM1114 1270L657 148Q733 129 814 129Q1070 129 1199 291T1329 739Q1329 1121 1114 1270Z" />
<glyph unicode="&#xd9;" horiz-adv-x="1438" d="M660 1627L337 2014H587L772 1627H660ZM1277 1479V519Q1277 264 1138 121T713 -22T292 121T156 521V1479H330V518Q330 317 425 222T719 127Q913 127 1008 223T1104 519V1479H1277Z" />
<glyph unicode="&#xda;" horiz-adv-x="1438" d="M1099 2015L774 1627H660L846 2015H1099ZM1277 1479V519Q1277 264 1138 121T713 -22T292 121T156 521V1479H330V518Q330 317 425 222T719 127Q913 127 1008 223T1104 519V1479H1277Z" />
<glyph unicode="&#xdb;" horiz-adv-x="1438" d="M423 1627L610 2015H823L1010 1627H876L715 1899L554 1627H423ZM1277 1479V519Q1277 264 1138 121T713 -22T292 121T156 521V1479H330V518Q330 317 425 222T719 127Q913 127 1008 223T1104 519V1479H1277Z" />
<glyph unicode="&#xdc;" horiz-adv-x="1438" d="M989 1627H834V1839H989V1627ZM598 1627H444V1839H598V1627ZM1277 1479V519Q1277 264 1138 121T713 -22T292 121T156 521V1479H330V518Q330 317 425 222T719 127Q913 127 1008 223T1104 519V1479H1277Z" />
<glyph unicode="&#xdd;" horiz-adv-x="1194" d="M979 2015L654 1627H540L726 2015H979ZM591 754L1007 1479H1195L673 590V0H498V586L-1 1479H186L591 754Z" />
<glyph unicode="&#xde;" horiz-adv-x="1291" d="M324 493H708Q1040 493 1040 782Q1040 932 955 1000T666 1068H324V493ZM147 0V1496H324V1217H648Q929 1217 1069 1119T1209 791Q1209 581 1089 462T719 342L324 349V0H147Z" />
<glyph unicode="&#xdf;" horiz-adv-x="1222" d="M771 148Q868 148 922 200T977 343Q977 393 951 438T877 522T785 588T680 651T591 705Q509 761 509 822Q509 880 574 934Q600 955 649 986T725 1038T776 1096T799 1182Q799 1269 732 1321T568 1373Q286 1373 286
1056V0H118V1046Q118 1275 230 1400T568 1525Q758 1525 873 1434T988 1182Q988 1142 980 1109T953 1047T917 998T866 953T811 915T747 876T683 838Q721 811 783 774T892 708T994 640T1083 560T1142 465T1166 348Q1166 255 1138 187T1057 78T937 19T786 0H443L459
148H771Z" />
<glyph unicode="&#xe0;" horiz-adv-x="1098" d="M468 1498L145 1885H395L580 1498H468ZM460 112Q579 112 669 177T786 354V539Q781 539 726 534T653 528Q436 509 351 457T265 290Q265 202 317 157T460 112ZM823 0Q808 64 794 138Q703 47 623 12T435 -23Q281 -23
188 57T94 289Q94 457 221 538T589 639Q622 642 688 647T788 656V753Q788 869 734 925T564 981Q402 981 237 901Q232 913 211 970T189 1030Q262 1071 362 1095T567 1120Q772 1120 862 1031T953 726V0H823Z" />
<glyph unicode="&#xe1;" horiz-adv-x="1098" d="M905 1630L580 1242H466L652 1630H905ZM460 112Q579 112 669 177T786 354V539Q781 539 726 534T653 528Q436 509 351 457T265 290Q265 202 317 157T460 112ZM823 0Q808 64 794 138Q703 47 623 12T435 -23Q281 -23
188 57T94 289Q94 457 221 538T589 639Q622 642 688 647T788 656V753Q788 869 734 925T564 981Q402 981 237 901Q232 913 211 970T189 1030Q262 1071 362 1095T567 1120Q772 1120 862 1031T953 726V0H823Z" />
<glyph unicode="&#xe2;" horiz-adv-x="1098" d="M230 1498L417 1886H630L817 1498H683L522 1770L361 1498H230ZM460 112Q579 112 669 177T786 354V539Q781 539 726 534T653 528Q436 509 351 457T265 290Q265 202 317 157T460 112ZM823 0Q808 64 794 138Q703 47
623 12T435 -23Q281 -23 188 57T94 289Q94 457 221 538T589 639Q622 642 688 647T788 656V753Q788 869 734 925T564 981Q402 981 237 901Q232 913 211 970T189 1030Q262 1071 362 1095T567 1120Q772 1120 862 1031T953 726V0H823Z" />
<glyph unicode="&#xe3;" horiz-adv-x="1098" d="M242 1250L160 1305Q195 1403 242 1444T349 1485Q394 1485 455 1461T576 1413T676 1389Q759 1389 801 1487L887 1451Q852 1335 802 1289T686 1242Q640 1242 578 1265T457 1311T358 1335Q281 1335 242 1250ZM460
112Q579 112 669 177T786 354V539Q781 539 726 534T653 528Q436 509 351 457T265 290Q265 202 317 157T460 112ZM823 0Q808 64 794 138Q703 47 623 12T435 -23Q281 -23 188 57T94 289Q94 457 221 538T589 639Q622 642 688 647T788 656V753Q788 869 734 925T564
981Q402 981 237 901Q232 913 211 970T189 1030Q262 1071 362 1095T567 1120Q772 1120 862 1031T953 726V0H823Z" />
<glyph unicode="&#xe4;" horiz-adv-x="1098" d="M796 1242H641V1454H796V1242ZM405 1242H251V1454H405V1242ZM460 112Q579 112 669 177T786 354V539Q781 539 726 534T653 528Q436 509 351 457T265 290Q265 202 317 157T460 112ZM823 0Q808 64 794 138Q703 47 623
12T435 -23Q281 -23 188 57T94 289Q94 457 221 538T589 639Q622 642 688 647T788 656V753Q788 869 734 925T564 981Q402 981 237 901Q232 913 211 970T189 1030Q262 1071 362 1095T567 1120Q772 1120 862 1031T953 726V0H823Z" />
<glyph unicode="&#xe5;" horiz-adv-x="1098" d="M373 1560T373 1495T417 1385T524 1339T630 1385T675 1495Q675 1560 631 1605T524 1650T418 1605ZM274 1495Q274 1598 347 1672T523 1746Q626 1746 699 1672T773 1495Q773 1393 700 1318T523 1242Q421 1242 348
1316T274 1495ZM460 112Q579 112 669 177T786 354V539Q781 539 726 534T653 528Q436 509 351 457T265 290Q265 202 317 157T460 112ZM823 0Q808 64 794 138Q703 47 623 12T435 -23Q281 -23 188 57T94 289Q94 457 221 538T589 639Q622 642 688 647T788 656V753Q788
869 734 925T564 981Q402 981 237 901Q232 913 211 970T189 1030Q262 1071 362 1095T567 1120Q772 1120 862 1031T953 726V0H823Z" />
<glyph unicode="&#xe6;" horiz-adv-x="1674" d="M888 615L1404 644V654Q1402 825 1351 904T1189 984Q1046 984 972 883T888 615ZM416 113Q448 113 483 118T565 136T636 157T718 184T787 208Q720 330 711 499Q667 497 647 495Q489 483 401 457T281 393T248 291Q248
113 416 113ZM404 -26Q261 -26 171 52T80 300Q80 355 96 399T139 474T210 528T298 566T406 590T523 604T651 613L714 616V781Q714 883 671 929T524 976Q426 976 330 953T168 894L132 1032Q197 1069 305 1096T520 1124Q644 1124 729 1075T837 932Q890 1027 984 1075T1192
1124Q1291 1124 1365 1088T1482 988T1545 849T1566 684Q1566 606 1530 573T1379 534L882 509Q895 322 968 221T1194 119Q1282 119 1368 152T1517 229L1569 108Q1415 -25 1183 -25Q981 -25 856 112Q761 53 638 14T404 -26Z" />
<glyph unicode="&#xe7;" horiz-adv-x="968" d="M496 -435H342L454 -9H540L496 -435ZM607 -23Q365 -23 229 134T92 545Q93 801 231 960T611 1120Q696 1120 775 1099T901 1044L855 914Q738 977 608 977Q449 977 357 861T264 544Q264 348 355 234T609 119Q738 119
873 189L894 56Q785 -23 607 -23Z" />
<glyph unicode="&#xe8;" horiz-adv-x="1108" d="M500 1498L177 1885H427L612 1498H500ZM702 982T574 982T365 892T270 644H849Q849 807 776 894ZM607 -23Q368 -23 231 129T93 545Q93 800 226 958T576 1120Q780 1120 899 981T1019 608Q1019 596 1019 564T1018 518H265Q268
331 361 227T613 122Q787 122 962 214L988 79Q821 -23 607 -23Z" />
<glyph unicode="&#xe9;" horiz-adv-x="1108" d="M938 1630L613 1242H499L685 1630H938ZM702 982T574 982T365 892T270 644H849Q849 807 776 894ZM607 -23Q368 -23 231 129T93 545Q93 800 226 958T576 1120Q780 1120 899 981T1019 608Q1019 596 1019 564T1018 518H265Q268
331 361 227T613 122Q787 122 962 214L988 79Q821 -23 607 -23Z" />
<glyph unicode="&#xea;" horiz-adv-x="1108" d="M262 1242L449 1630H662L849 1242H715L554 1514L393 1242H262ZM702 982T574 982T365 892T270 644H849Q849 807 776 894ZM607 -23Q368 -23 231 129T93 545Q93 800 226 958T576 1120Q780 1120 899 981T1019 608Q1019
596 1019 564T1018 518H265Q268 331 361 227T613 122Q787 122 962 214L988 79Q821 -23 607 -23Z" />
<glyph unicode="&#xeb;" horiz-adv-x="1108" d="M829 1242H674V1454H829V1242ZM438 1242H284V1454H438V1242ZM702 982T574 982T365 892T270 644H849Q849 807 776 894ZM607 -23Q368 -23 231 129T93 545Q93 800 226 958T576 1120Q780 1120 899 981T1019 608Q1019
596 1019 564T1018 518H265Q268 331 361 227T613 122Q787 122 962 214L988 79Q821 -23 607 -23Z" />
<glyph unicode="&#xec;" horiz-adv-x="430" d="M164 1242L-159 1629H91L276 1242H164ZM304 1098V0H135V1098H304Z" />
<glyph unicode="&#xed;" horiz-adv-x="430" d="M601 1886L276 1498H162L348 1886H601ZM304 1098V0H135V1098H304Z" />
<glyph unicode="&#xee;" horiz-adv-x="430" d="M-74 1242L113 1630H326L513 1242H379L218 1514L57 1242H-74ZM304 1098V0H135V1098H304Z" />
<glyph unicode="&#xef;" horiz-adv-x="430" d="M492 1242H337V1454H492V1242ZM101 1242H-53V1454H101V1242ZM304 1098V0H135V1098H304Z" />
<glyph unicode="&#xf0;" horiz-adv-x="1204" d="M603 833Q449 833 359 733T269 485Q269 386 305 304T421 168T609 114Q766 114 855 215T945 472Q945 541 923 605T858 720T750 802T603 833ZM569 972Q715 972 844 877Q761 1035 541 1257L269 1145L226 1277L446 1364L210
1588H433L579 1429L868 1542L914 1413L672 1320Q920 1050 1015 884Q1117 692 1117 492Q1117 381 1084 288T988 124T827 15T603 -25Q482 -25 383 16T220 127T122 290T87 486Q87 705 219 838T569 972Z" />
<glyph unicode="&#xf1;" horiz-adv-x="1184" d="M315 1250L233 1305Q268 1403 315 1444T422 1485Q467 1485 528 1461T649 1413T749 1389Q832 1389 874 1487L960 1451Q925 1335 875 1289T759 1242Q713 1242 651 1265T530 1311T431 1335Q354 1335 315 1250ZM143
0V1097H283L304 940Q369 1021 466 1070T677 1120Q867 1120 958 1014T1049 686V0H882Q882 660 881 707Q877 847 825 912T649 977Q520 977 434 915T322 754Q312 687 312 600V0H143Z" />
<glyph unicode="&#xf2;" horiz-adv-x="1201" d="M544 1242L221 1629H471L656 1242H544ZM265 546Q265 351 351 234T604 116Q768 116 851 233T935 548Q935 749 853 864T601 980Q437 980 351 862T265 546ZM1108 549Q1108 294 972 136T596 -23Q365 -23 229 137T92
548Q92 804 229 962T605 1120Q840 1120 974 962T1108 549Z" />
<glyph unicode="&#xf3;" horiz-adv-x="1201" d="M982 1630L657 1242H543L729 1630H982ZM265 546Q265 351 351 234T604 116Q768 116 851 233T935 548Q935 749 853 864T601 980Q437 980 351 862T265 546ZM1108 549Q1108 294 972 136T596 -23Q365 -23 229 137T92
548Q92 804 229 962T605 1120Q840 1120 974 962T1108 549Z" />
<glyph unicode="&#xf4;" horiz-adv-x="1201" d="M306 1242L493 1630H706L893 1242H759L598 1514L437 1242H306ZM265 546Q265 351 351 234T604 116Q768 116 851 233T935 548Q935 749 853 864T601 980Q437 980 351 862T265 546ZM1108 549Q1108 294 972 136T596 -23Q365
-23 229 137T92 548Q92 804 229 962T605 1120Q840 1120 974 962T1108 549Z" />
<glyph unicode="&#xf5;" horiz-adv-x="1201" d="M319 1250L237 1305Q272 1403 319 1444T426 1485Q471 1485 532 1461T653 1413T753 1389Q836 1389 878 1487L964 1451Q929 1335 879 1289T763 1242Q717 1242 655 1265T534 1311T435 1335Q358 1335 319 1250ZM265
546Q265 351 351 234T604 116Q768 116 851 233T935 548Q935 749 853 864T601 980Q437 980 351 862T265 546ZM1108 549Q1108 294 972 136T596 -23Q365 -23 229 137T92 548Q92 804 229 962T605 1120Q840 1120 974 962T1108 549Z" />
<glyph unicode="&#xf6;" horiz-adv-x="1201" d="M873 1242H718V1454H873V1242ZM482 1242H328V1454H482V1242ZM265 546Q265 351 351 234T604 116Q768 116 851 233T935 548Q935 749 853 864T601 980Q437 980 351 862T265 546ZM1108 549Q1108 294 972 136T596 -23Q365
-23 229 137T92 548Q92 804 229 962T605 1120Q840 1120 974 962T1108 549Z" />
<glyph unicode="&#xf7;" horiz-adv-x="1211" d="M1098 523H97V672H1098V523ZM716 1166V939H491V1166H716ZM682 249V22H491V249H682Z" />
<glyph unicode="&#xf8;" horiz-adv-x="1200" d="M294 -235L223 -197L332 48Q217 119 155 250T92 548Q92 804 229 962T605 1120Q707 1120 795 1087L902 1327L979 1296L869 1051Q984 981 1046 850T1108 549Q1108 294 972 136T596 -23Q491 -23 404 12L294 -235ZM736
955Q675 980 601 980Q437 980 351 862T265 546Q265 299 394 188L736 955ZM807 913L463 144Q525 116 604 116Q768 116 851 233T935 548Q935 805 807 913Z" />
<glyph unicode="&#xf9;" horiz-adv-x="1100" d="M494 1498L171 1885H421L606 1498H494ZM105 366V1097H273V364Q273 292 293 242T352 165T439 125T551 113Q681 113 753 170T826 364V1097H994V366Q994 282 970 215T906 104T808 30T688 -12T551 -25Q479 -25 415 -12T294
30T195 104T129 216T105 366Z" />
<glyph unicode="&#xfa;" horiz-adv-x="1100" d="M931 1630L606 1242H492L678 1630H931ZM105 366V1097H273V364Q273 292 293 242T352 165T439 125T551 113Q681 113 753 170T826 364V1097H994V366Q994 282 970 215T906 104T808 30T688 -12T551 -25Q479 -25 415 -12T294
30T195 104T129 216T105 366Z" />
<glyph unicode="&#xfb;" horiz-adv-x="1100" d="M256 1242L443 1630H656L843 1242H709L548 1514L387 1242H256ZM105 366V1097H273V364Q273 292 293 242T352 165T439 125T551 113Q681 113 753 170T826 364V1097H994V366Q994 282 970 215T906 104T808 30T688 -12T551
-25Q479 -25 415 -12T294 30T195 104T129 216T105 366Z" />
<glyph unicode="&#xfc;" horiz-adv-x="1100" d="M822 1242H667V1454H822V1242ZM431 1242H277V1454H431V1242ZM105 366V1097H273V364Q273 292 293 242T352 165T439 125T551 113Q681 113 753 170T826 364V1097H994V366Q994 282 970 215T906 104T808 30T688 -12T551
-25Q479 -25 415 -12T294 30T195 104T129 216T105 366Z" />
<glyph unicode="&#xfd;" horiz-adv-x="1022" d="M889 1630L564 1242H450L636 1630H889ZM3 1097H180L526 184L834 1097H1011Q567 -125 552 -163Q483 -336 385 -416T127 -497Q79 -497 26 -489L16 -347Q72 -351 100 -351Q213 -351 271 -310T376 -154Q417 -49 437 8L3 1097Z" />
<glyph unicode="&#xfe;" horiz-adv-x="1205" d="M292 162V-459H124V1213V1510H292V933Q421 1124 643 1124Q778 1123 882 1049T1043 847T1099 560Q1099 471 1082 387T1027 228T937 97T809 8T643 -25Q402 -25 292 162ZM624 113Q691 113 745 140T832 212T887 315T917
432T926 551Q926 629 912 701T865 839T773 946T631 986Q522 986 443 925T327 766T290 551Q290 461 309 385T367 246T471 149T624 113Z" />
<glyph unicode="&#xff;" horiz-adv-x="1022" d="M779 1498H624V1710H779V1498ZM388 1498H234V1710H388V1498ZM3 1097H180L526 184L834 1097H1011Q567 -125 552 -163Q483 -336 385 -416T127 -497Q79 -497 26 -489L16 -347Q72 -351 100 -351Q213 -351 271 -310T376
-154Q417 -49 437 8L3 1097Z" />
<glyph unicode="&#x2013;" horiz-adv-x="1317" d="M1186 675V527H139V675H1186Z" />
<glyph unicode="&#x2014;" horiz-adv-x="2427" d="M2296 675V527H139V675H2296Z" />
<glyph unicode="&#x2018;" horiz-adv-x="510" d="M129 1102L265 1574H382L291 1102H129Z" />
<glyph unicode="&#x2019;" horiz-adv-x="504" d="M249 1102H133L226 1574H383L249 1102Z" />
<glyph unicode="&#x201a;" horiz-adv-x="504" d="M126 -256L218 216H379L245 -256H126Z" />
<glyph unicode="&#x201c;" horiz-adv-x="818" d="M438 1102L573 1574H690L600 1102H438ZM129 1102L263 1574H383L289 1102H129Z" />
<glyph unicode="&#x201d;" horiz-adv-x="795" d="M133 1102L226 1574H385L250 1102H133ZM420 1102L511 1574H674L537 1102H420Z" />
<glyph unicode="&#x201e;" horiz-adv-x="819" d="M126 -256L216 216H377L244 -256H126ZM441 -256L532 216H694L559 -256H441Z" />
<glyph unicode="&#x2022;" horiz-adv-x="867" d="M731 753Q731 615 642 515T432 415Q309 415 223 513T137 747Q137 884 227 985T436 1086Q557 1086 644 988T731 753Z" />
<glyph unicode="&#x2039;" horiz-adv-x="620" d="M361 982H501L269 583L495 182H356L120 583L361 982Z" />
<glyph unicode="&#x203a;" horiz-adv-x="617" d="M505 585L264 182H124L355 585L130 982H269L505 585Z" />
</font>
</defs>
</svg>
