<svg xmlns="http://www.w3.org/2000/svg" width="150" height="150" viewBox="0 0 150 150"><rect width="100%" height="100%" fill="#000000"/><path fill="#FFFFFF" d="M29.38 68.075h1.85v11.14h-1.85v-11.14Zm7.11 3.33q.85 0 1.55.27.71.28 1.2.79.5.51.77 1.25.27.73.27 1.64 0 .91-.27 1.65-.27.73-.77 1.25-.49.52-1.2.8-.7.27-1.55.27-.86 0-1.57-.27-.7-.28-1.2-.8t-.78-1.25q-.27-.74-.27-1.65 0-.91.27-1.64.28-.74.78-1.25t1.2-.79q.71-.27 1.57-.27Zm0 6.5q.96 0 1.42-.65.46-.64.46-1.89 0-1.24-.46-1.9-.46-.65-1.42-.65-.98 0-1.45.66-.46.66-.46 1.89 0 1.24.46 1.89.47.65 1.45.65Zm8.02-2.73q.35 0 .6-.09.26-.09.43-.26.17-.16.25-.4.09-.23.09-.5 0-.58-.34-.91-.34-.33-1.03-.33-.68 0-1.02.33-.34.33-.34.91 0 .27.08.5.09.23.26.4t.43.26q.26.09.59.09Zm2.1 4.38q0-.22-.14-.36-.13-.14-.37-.22-.23-.08-.54-.12-.31-.04-.66-.06-.35-.01-.72-.03-.37-.01-.72-.06-.31.17-.5.41-.19.23-.19.53 0 .21.1.38.1.18.32.31.22.12.57.2.36.07.87.07t.89-.08q.37-.08.62-.22.24-.14.35-.33.12-.19.12-.42Zm-.37-7.77h2.21v.69q0 .33-.4.4l-.69.13q.16.4.16.87 0 .57-.23 1.03-.23.46-.63.79-.41.32-.96.49-.55.18-1.19.18-.22 0-.43-.02l-.41-.06q-.36.22-.36.49 0 .23.21.34.21.11.57.15.35.04.8.06.45.01.92.05.47.03.92.13.45.09.81.29.35.21.56.55.22.35.22.9 0 .51-.26.99-.25.48-.72.86-.48.37-1.17.6-.7.23-1.58.23-.87 0-1.52-.17-.64-.17-1.07-.45-.43-.28-.64-.65-.21-.37-.21-.77 0-.53.33-.9.33-.36.9-.58-.31-.16-.49-.42t-.18-.69q0-.17.06-.36.07-.18.19-.36t.31-.34q.19-.16.44-.29-.58-.31-.92-.84-.33-.52-.33-1.23 0-.57.23-1.03.23-.46.64-.79.41-.32.96-.5.56-.17 1.22-.17.5 0 .93.1.44.1.8.3Zm6.79-.38q.85 0 1.55.27.7.28 1.2.79t.77 1.25q.27.73.27 1.64 0 .91-.27 1.65-.27.73-.77 1.25t-1.2.8q-.7.27-1.55.27-.87 0-1.57-.27-.71-.28-1.21-.8-.49-.52-.77-1.25-.27-.74-.27-1.65 0-.91.27-1.64.28-.74.77-1.25.5-.51 1.21-.79.7-.27 1.57-.27Zm0 6.5q.96 0 1.42-.65.46-.64.46-1.89 0-1.24-.46-1.9-.46-.65-1.42-.65-.98 0-1.45.66t-.47 1.89q0 1.24.47 1.89.47.65 1.45.65Zm13.75-.08h1.95v1.39h-6v-1.39h2.2v-6.32q0-.37.02-.77l-1.56 1.3q-.13.11-.27.13-.13.03-.24.01-.12-.02-.21-.08t-.13-.13l-.59-.8 3.31-2.81h1.52v9.47Zm6.32-7.77-.39 2.25q.36-.07.69-.11.33-.03.64-.03.86 0 1.51.26.65.25 1.09.7.45.45.67 1.05.23.61.23 1.31 0 .86-.31 1.57-.3.71-.84 1.22t-1.28.78q-.74.28-1.61.28-.51 0-.97-.11-.45-.1-.86-.28-.4-.17-.74-.4-.34-.23-.61-.49l.57-.78q.18-.26.47-.26.19 0 .39.12.19.12.44.27.25.14.59.26.35.12.83.12.51 0 .9-.17.39-.16.64-.46.26-.29.39-.7.14-.41.14-.89 0-.89-.52-1.39-.51-.5-1.52-.5-.77 0-1.58.29l-1.15-.33.9-5.26h5.35v.78q0 .4-.25.65-.24.25-.84.25H73.1Zm13.59 3.74q0 1.42-.3 2.46-.3 1.05-.84 1.73-.54.68-1.27 1.02-.73.33-1.58.33-.84 0-1.57-.33-.72-.34-1.25-1.02-.54-.68-.84-1.73-.3-1.04-.3-2.46 0-1.43.3-2.47.3-1.04.84-1.73.53-.68 1.25-1.01.73-.33 1.57-.33.85 0 1.58.33.73.33 1.27 1.01.54.69.84 1.73.3 1.04.3 2.47Zm-1.91 0q0-1.18-.17-1.95t-.46-1.23q-.29-.46-.67-.64-.37-.19-.78-.19-.39 0-.77.19-.37.18-.65.64-.29.46-.46 1.23-.16.77-.16 1.95 0 1.17.16 1.95.17.77.46 1.23.28.46.65.64.38.18.77.18.41 0 .78-.18.38-.18.67-.64.29-.46.46-1.23.17-.78.17-1.95Zm7.44 1.37 2.63 4.05h-1.78q-.2 0-.33-.1-.12-.11-.2-.24l-1.63-2.68q-.04.12-.09.24-.05.11-.11.21l-1.44 2.23q-.08.12-.2.23-.12.11-.3.11h-1.66l2.64-3.97-2.53-3.72H89q.21 0 .3.05.1.06.18.18l1.61 2.57q.08-.25.23-.5l1.3-2.03q.16-.27.43-.27h1.7l-2.53 3.64Zm8.49 2.66h1.95v1.39h-6v-1.39h2.2v-6.32q0-.37.02-.77l-1.56 1.3q-.13.11-.27.13-.13.03-.24.01-.12-.02-.21-.08t-.13-.13l-.59-.8 3.31-2.81h1.52v9.47Zm6.32-7.77-.39 2.25q.36-.07.69-.11.33-.03.64-.03.86 0 1.51.26.65.25 1.09.7.45.45.67 1.05.23.61.23 1.31 0 .86-.31 1.57-.3.71-.84 1.22t-1.28.78q-.74.28-1.61.28-.51 0-.97-.11-.45-.1-.86-.28-.4-.17-.74-.4-.34-.23-.61-.49l.57-.78q.18-.26.47-.26.19 0 .39.12.19.12.44.27.25.14.59.26.35.12.83.12.51 0 .9-.17.39-.16.64-.46.26-.29.39-.7.14-.41.14-.89 0-.89-.52-1.39-.51-.5-1.52-.5-.77 0-1.58.29l-1.15-.33.9-5.26h5.35v.78q0 .4-.25.65-.24.25-.84.25h-2.97Zm13.59 3.74q0 1.42-.3 2.46-.3 1.05-.84 1.73-.54.68-1.27 1.02-.73.33-1.58.33-.84 0-1.57-.33-.72-.34-1.25-1.02-.54-.68-.84-1.73-.3-1.04-.3-2.46 0-1.43.3-2.47.3-1.04.84-1.73.53-.68 1.25-1.01.73-.33 1.57-.33.85 0 1.58.33.73.33 1.27 1.01.54.69.84 1.73.3 1.04.3 2.47Zm-1.91 0q0-1.18-.17-1.95t-.46-1.23q-.29-.46-.67-.64-.37-.19-.78-.19-.39 0-.77.19-.37.18-.65.64-.29.46-.46 1.23-.16.77-.16 1.95 0 1.17.16 1.95.17.77.46 1.23.28.46.65.64.38.18.77.18.41 0 .78-.18.38-.18.67-.64.29-.46.46-1.23.17-.78.17-1.95Z"/></svg>